<?xml version="1.0" encoding="UTF-8" standalone="no"?>
<svg
   xmlns:dc="http://purl.org/dc/elements/1.1/"
   xmlns:cc="http://creativecommons.org/ns#"
   xmlns:rdf="http://www.w3.org/1999/02/22-rdf-syntax-ns#"
   xmlns:svg="http://www.w3.org/2000/svg"
   xmlns="http://www.w3.org/2000/svg"
   xmlns:sodipodi="http://sodipodi.sourceforge.net/DTD/sodipodi-0.dtd"
   xmlns:inkscape="http://www.inkscape.org/namespaces/inkscape"
   height="411"
   width="235.5"
   inkscape:version="1.0 (4035a4fb49, 2020-05-01)"
   sodipodi:docname="icon.svg"
   xml:space="preserve"
   viewBox="0 0 235.5 411.00001"
   y="0px"
   x="0px"
   id="Layer_1"
   version="1.1"><metadata
   id="metadata20"><rdf:RDF><cc:Work
       rdf:about=""><dc:format>image/svg+xml</dc:format><dc:type
         rdf:resource="http://purl.org/dc/dcmitype/StillImage" /><dc:title></dc:title></cc:Work></rdf:RDF></metadata><defs
   id="defs18">
	
	
	
	
	
</defs><sodipodi:namedview
   fit-margin-bottom="0"
   fit-margin-right="0"
   fit-margin-left="0"
   fit-margin-top="0"
   inkscape:current-layer="Layer_1"
   inkscape:window-maximized="1"
   inkscape:window-y="-8"
   inkscape:window-x="-8"
   inkscape:cy="205.55"
   inkscape:cx="117.75"
   inkscape:zoom="2.1083599"
   showgrid="false"
   id="namedview16"
   inkscape:window-height="1027"
   inkscape:window-width="1920"
   inkscape:pageshadow="2"
   inkscape:pageopacity="0"
   guidetolerance="10"
   gridtolerance="10"
   objecttolerance="10"
   borderopacity="1"
   bordercolor="#666666"
   pagecolor="#ffffff" />
<style
   id="style2"
   type="text/css">
	.st0{fill:none;stroke:#000000;stroke-width:8;stroke-miterlimit:10;}
	.st1{fill:#C3C3C3;}
</style>
<path
   style="stroke-width:11;stroke-miterlimit:10;stroke-dasharray:none"
   class="st0"
   d="M 214.4,121.2 C 206.1,167 165.8,202.1 117.8,202.1 69.7,202.1 29.4,167 21.1,121.2 11.5,131.3 5.5,144.9 5.5,160 v 217.4 c 0,15.5 12.6,28.1 28.1,28.1 h 168.3 c 15.5,0 28.1,-12.6 28.1,-28.1 V 159.9 c 0,-15 -6,-28.6 -15.6,-38.7 z"
   id="path4" /><circle
   style="fill:none;fill-opacity:1;stroke-width:11;stroke-miterlimit:10;stroke-dasharray:none"
   id="Ellipse_2"
   class="st0"
   cx="117.8"
   cy="103.8"
   r="56.099998" /><g
   transform="matrix(1.3208556,0,0,1.3208556,-35.799464,-113.74866)"
   id="g868"><g
     id="Gruppe_8"
     transform="translate(0.5,0.5)">
		<path
   d="m 87.7,361.5 c 0,-0.2 0.2,-0.4 0.4,-0.4 h 0.5 l 8.2,7.9 v 0 -7.3 c 0,-0.2 0.2,-0.4 0.4,-0.4 h 2.5 c 0.2,0 0.4,0.2 0.4,0.4 v 13.8 c 0,0.2 -0.2,0.4 -0.4,0.4 h -0.3 c -0.1,0 -0.2,-0.1 -0.3,-0.1 L 91,367.7 v 0 7.6 c 0,0.2 -0.2,0.4 -0.4,0.4 h -2.4 c -0.2,0 -0.4,-0.2 -0.4,-0.4 z"
   id="Pfad_23" />
		<path
   d="m 106,361.7 c 0,-0.2 0.2,-0.4 0.4,-0.4 h 2.5 c 0.2,0 0.4,0.2 0.4,0.4 v 8.3 c 0,1.4 1.1,2.6 2.5,2.6 1.4,0 2.6,-1 2.6,-2.4 0,-0.1 0,-0.1 0,-0.2 v -8.3 c 0,-0.2 0.2,-0.4 0.4,-0.4 h 2.5 c 0.2,0 0.4,0.2 0.4,0.4 v 8.5 c -0.1,3.2 -2.8,5.8 -6,5.7 -3.1,-0.1 -5.6,-2.6 -5.7,-5.7 z"
   id="Pfad_24" />
		<path
   d="m 123.7,361.8 c 0,-0.3 0.2,-0.5 0.4,-0.5 0,0 0,0 0.1,0 h 2.4 c 0.3,0 0.5,0.2 0.5,0.4 0,0 0,0 0,0.1 v 5.4 l 4.5,-5.7 c 0.1,-0.1 0.2,-0.2 0.4,-0.2 h 2.6 c 0.3,0 0.5,0.3 0.5,0.6 0,0.1 0,0.2 -0.1,0.2 l -4.8,6 5.2,6.8 c 0.2,0.2 0.1,0.6 -0.2,0.7 -0.1,0 -0.2,0.1 -0.2,0.1 h -2.8 c -0.1,0 -0.3,-0.1 -0.4,-0.1 l -4.7,-6.4 v 6.1 c 0,0.3 -0.2,0.5 -0.4,0.5 0,0 0,0 -0.1,0 h -2.4 c -0.3,0 -0.5,-0.2 -0.5,-0.4 0,0 0,0 0,-0.1 0,0 0,-13.5 0,-13.5 z"
   id="Pfad_25" />
		<path
   d="m 140.1,361.7 c 0,-0.2 0.2,-0.4 0.4,-0.4 h 2.5 c 0.2,0 0.4,0.2 0.4,0.4 v 13.6 c 0,0.2 -0.2,0.4 -0.4,0.4 h -2.5 c -0.2,0 -0.4,-0.2 -0.4,-0.4 z"
   id="Pfad_26" />
	</g><path
     d="m 140.1,353.5 c 0,-1.2 0.9,-2.1 2.1,-2.1 1.2,0 2.1,0.9 2.1,2.1 0,1.2 -0.9,2.1 -2.1,2.1 -1.2,0 -2.1,-0.9 -2.1,-2.1 z"
     class="st1"
     id="Pfad_27" /></g><path
   style="stroke-width:11;stroke-miterlimit:10;stroke-dasharray:none"
   id="Pfad_22"
   class="st0"
   d="m 117.8,5.5 c 54,0 98.2,44.2 98.2,98.2 0,54 -44.2,98.3 -98.2,98.3 -54,0 -98.2,-44.2 -98.2,-98.2 0,-54 44.1,-98.3 98.2,-98.3 z" />
</svg>
