<?xml version="1.0" encoding="utf-8"?>
<!-- Generator: Adobe Illustrator 22.1.0, SVG Export Plug-In . SVG Version: 6.00 Build 0)  -->
<svg version="1.1" id="Layer_1" xmlns="http://www.w3.org/2000/svg" xmlns:xlink="http://www.w3.org/1999/xlink" x="0px" y="0px"
	 viewBox="0 0 232.5 407.9" style="enable-background:new 0 0 232.5 407.9;" xml:space="preserve">
<style type="text/css">
	.st0{fill:none;stroke:#000000;stroke-width:8;stroke-miterlimit:10;}
	.st1{fill:#C3C3C3;}
</style>
<g id="Gruppe_9" transform="translate(0.5 0.5)">
	<path class="st0" d="M212.4,119.1c-8.3,45.8-48.6,80.9-96.6,80.9c-48.1,0-88.4-35.1-96.7-80.9c-9.6,10.1-15.6,23.7-15.6,38.8v217.4
		c0,15.5,12.6,28.1,28.1,28.1h168.3c15.5,0,28.1-12.6,28.1-28.1V157.8C228,142.8,222,129.2,212.4,119.1z"/>
	<circle id="Ellipse_2" class="st0" cx="115.8" cy="101.7" r="56.1"/>
	<g id="Gruppe_8">
		<path id="Pfad_23" d="M87.7,361.5c0-0.2,0.2-0.4,0.4-0.4h0.5l8.2,7.9l0,0v-7.3c0-0.2,0.2-0.4,0.4-0.4h2.5c0.2,0,0.4,0.2,0.4,0.4
			v13.8c0,0.2-0.2,0.4-0.4,0.4h-0.3c-0.1,0-0.2-0.1-0.3-0.1l-8.1-8.1l0,0v7.6c0,0.2-0.2,0.4-0.4,0.4h-2.4c-0.2,0-0.4-0.2-0.4-0.4
			L87.7,361.5z"/>
		<path id="Pfad_24" d="M106,361.7c0-0.2,0.2-0.4,0.4-0.4h2.5c0.2,0,0.4,0.2,0.4,0.4v8.3c0,1.4,1.1,2.6,2.5,2.6c1.4,0,2.6-1,2.6-2.4
			c0-0.1,0-0.1,0-0.2v-8.3c0-0.2,0.2-0.4,0.4-0.4h2.5c0.2,0,0.4,0.2,0.4,0.4v8.5c-0.1,3.2-2.8,5.8-6,5.7c-3.1-0.1-5.6-2.6-5.7-5.7
			L106,361.7z"/>
		<path id="Pfad_25" d="M123.7,361.8c0-0.3,0.2-0.5,0.4-0.5c0,0,0,0,0.1,0h2.4c0.3,0,0.5,0.2,0.5,0.4c0,0,0,0,0,0.1v5.4l4.5-5.7
			c0.1-0.1,0.2-0.2,0.4-0.2h2.6c0.3,0,0.5,0.3,0.5,0.6c0,0.1,0,0.2-0.1,0.2l-4.8,6l5.2,6.8c0.2,0.2,0.1,0.6-0.2,0.7
			c-0.1,0-0.2,0.1-0.2,0.1h-2.8c-0.1,0-0.3-0.1-0.4-0.1l-4.7-6.4v6.1c0,0.3-0.2,0.5-0.4,0.5c0,0,0,0-0.1,0h-2.4
			c-0.3,0-0.5-0.2-0.5-0.4c0,0,0,0,0-0.1C123.7,375.3,123.7,361.8,123.7,361.8z"/>
		<path id="Pfad_26" d="M140.1,361.7c0-0.2,0.2-0.4,0.4-0.4h2.5c0.2,0,0.4,0.2,0.4,0.4v13.6c0,0.2-0.2,0.4-0.4,0.4h-2.5
			c-0.2,0-0.4-0.2-0.4-0.4V361.7z"/>
	</g>
	<path id="Pfad_27" class="st1" d="M139.6,353c0-1.2,0.9-2.1,2.1-2.1c1.2,0,2.1,0.9,2.1,2.1c0,1.2-0.9,2.1-2.1,2.1
		C140.5,355.1,139.6,354.2,139.6,353z"/>
	<path id="Pfad_22" class="st0" d="M115.8,3.4c54,0,98.2,44.2,98.2,98.2s-44.2,98.3-98.2,98.3s-98.2-44.2-98.2-98.2
		S61.7,3.4,115.8,3.4z"/>
</g>
</svg>
