<?xml version="1.0" encoding="UTF-8" standalone="no"?>
<svg
   xmlns:dc="http://purl.org/dc/elements/1.1/"
   xmlns:cc="http://creativecommons.org/ns#"
   xmlns:rdf="http://www.w3.org/1999/02/22-rdf-syntax-ns#"
   xmlns:svg="http://www.w3.org/2000/svg"
   xmlns="http://www.w3.org/2000/svg"
   xmlns:sodipodi="http://sodipodi.sourceforge.net/DTD/sodipodi-0.dtd"
   xmlns:inkscape="http://www.inkscape.org/namespaces/inkscape"
   inkscape:export-ydpi="93.350319"
   inkscape:export-xdpi="93.350319"
   inkscape:export-filename="C:\Users\pfreg\Documents\GitHub\nuki.homey\drivers\nuki\assets\icon.png"
   version="1.1"
   id="Layer_1"
   x="0px"
   y="0px"
   viewBox="0 0 412 412.00001"
   xml:space="preserve"
   sodipodi:docname="icon.svg"
   inkscape:version="1.0 (4035a4fb49, 2020-05-01)"
   width="412"
   height="412"><metadata
   id="metadata20"><rdf:RDF><cc:Work
       rdf:about=""><dc:format>image/svg+xml</dc:format><dc:type
         rdf:resource="http://purl.org/dc/dcmitype/StillImage" /><dc:title></dc:title></cc:Work></rdf:RDF></metadata><defs
   id="defs18">
	
	
	
	
	
</defs><sodipodi:namedview
   inkscape:document-rotation="0"
   pagecolor="#ffffff"
   bordercolor="#666666"
   borderopacity="1"
   objecttolerance="10"
   gridtolerance="10"
   guidetolerance="10"
   inkscape:pageopacity="0"
   inkscape:pageshadow="2"
   inkscape:window-width="1920"
   inkscape:window-height="1027"
   id="namedview16"
   showgrid="false"
   inkscape:zoom="1.4908356"
   inkscape:cx="263.67847"
   inkscape:cy="187.11771"
   inkscape:window-x="-8"
   inkscape:window-y="-8"
   inkscape:window-maximized="1"
   inkscape:current-layer="Layer_1"
   fit-margin-top="0"
   fit-margin-left="0"
   fit-margin-right="0"
   fit-margin-bottom="0" />
<style
   type="text/css"
   id="style2">
	.st0{fill:none;stroke:#000000;stroke-width:8;stroke-miterlimit:10;}
	.st1{fill:#C3C3C3;}
</style>
<path
   id="path4"
   d="m 302.15,121.7 c -8.3,45.8 -48.6,80.9 -96.6,80.9 -48.1,0 -88.4,-35.1 -96.7,-80.9 -9.6,10.1 -15.6,23.7 -15.6,38.8 v 217.4 c 0,15.5 12.6,28.1 28.1,28.1 h 168.3 c 15.5,0 28.1,-12.6 28.1,-28.1 V 160.4 c 0,-15 -6,-28.6 -15.6,-38.7 z"
   class="st0"
   style="stroke-width:11;stroke-miterlimit:10;stroke-dasharray:none" /><path
   class="st0"
   d="M 261.6,104.3 A 56.099998,56.099998 0 0 1 205.5,160.4 56.099998,56.099998 0 0 1 149.4,104.3 56.099998,56.099998 0 0 1 205.5,48.200005 56.099998,56.099998 0 0 1 261.6,104.3"
   style="fill:none;fill-opacity:1;stroke:#000000;stroke-width:11;stroke-miterlimit:10;stroke-dasharray:none"
   id="Ellipse_2" /><path
   d="m 205.5,6 c 54,0 98.2,44.2 98.2,98.2 0,54 -44.2,98.3 -98.2,98.3 -54,0 -98.2,-44.2 -98.2,-98.2 0,-54 44.1,-98.3 98.2,-98.3 z"
   class="st0"
   id="Pfad_22"
   style="stroke-width:11;stroke-miterlimit:10;stroke-dasharray:none" />
<g
   id="g981"
   transform="matrix(1.5344025,0,0,1.5348875,45.731659,98.291108)"
   style="fill:#000000;fill-opacity:1;stroke:none;stroke-width:0;stroke-miterlimit:100;stroke-dasharray:none"><path
     id="path977"
     style="fill:#000000;fill-opacity:1;stroke:none;stroke-width:0;stroke-miterlimit:100;stroke-dasharray:none"
     d="m 77,173.6 c 0,-0.1 0.1,-0.4 0.4,-0.4 H 78 l 8,7.7 v -7.1 c 0,-0.1 0.1,-0.4 0.4,-0.4 h 2.4 c 0.1,0 0.4,0.1 0.4,0.4 v 13.4 c 0,0.1 -0.1,0.4 -0.4,0.4 h -0.4 c 0,0 -0.3,0 -0.3,-0.1 l -7.8,-8 v 7.4 c 0,0.1 -0.1,0.4 -0.4,0.4 h -2.4 c -0.1,0 -0.4,-0.1 -0.4,-0.4 v -13.3 z m 51.2,0.1 c 0,-0.1 0.1,-0.4 0.4,-0.4 h 2.4 c 0.1,0 0.4,0.1 0.4,0.4 V 187 c 0,0.1 -0.1,0.4 -0.4,0.4 h -2.4 c -0.1,0 -0.4,-0.1 -0.4,-0.4 z m -16.1,0.1 c 0,-0.3 0.1,-0.4 0.4,-0.4 h 2.4 c 0.3,0 0.4,0.3 0.4,0.4 v 5.3 l 4.5,-5.6 c 0.1,-0.1 0.3,-0.1 0.4,-0.1 h 2.5 c 0.4,0 0.6,0.4 0.4,0.7 l -4.6,5.9 5,6.6 c 0.3,0.3 0,0.7 -0.4,0.7 h -2.8 c -0.1,0 -0.3,-0.1 -0.4,-0.1 l -4.6,-6.3 v 6 c 0,0.3 -0.3,0.4 -0.4,0.4 h -2.4 c -0.3,0 -0.4,-0.3 -0.4,-0.4 z m -17.2,-0.1 c 0,-0.1 0.1,-0.4 0.4,-0.4 h 2.5 c 0.3,0 0.4,0.1 0.4,0.4 v 8.1 c 0,1.4 1,2.5 2.5,2.5 1.4,0 2.5,-1.1 2.5,-2.5 v -8.1 c 0,-0.1 0.1,-0.4 0.4,-0.4 h 2.5 c 0.1,0 0.4,0.1 0.4,0.4 v 8.3 c 0,3.1 -2.5,5.6 -5.7,5.6 -3.1,0 -5.7,-2.5 -5.7,-5.6 v -8.3 z"
     class="st0" /><path
     id="path979"
     d="m 127.8,165.2 c 0,-1.1 0.8,-2.1 2,-2.1 1.2,0 2.1,1 2.1,2.1 0,1.1 -1,2.1 -2.1,2.1 -1.1,0 -2,-1 -2,-2.1 z"
     class="st0"
     style="fill:#000000;fill-opacity:1;stroke:none;stroke-width:0;stroke-miterlimit:100;stroke-dasharray:none" /></g></svg>
