<?xml version="1.0" encoding="UTF-8" standalone="no"?>
<svg
   xmlns:dc="http://purl.org/dc/elements/1.1/"
   xmlns:cc="http://creativecommons.org/ns#"
   xmlns:rdf="http://www.w3.org/1999/02/22-rdf-syntax-ns#"
   xmlns:svg="http://www.w3.org/2000/svg"
   xmlns="http://www.w3.org/2000/svg"
   xmlns:sodipodi="http://sodipodi.sourceforge.net/DTD/sodipodi-0.dtd"
   xmlns:inkscape="http://www.inkscape.org/namespaces/inkscape"
   inkscape:export-ydpi="93"
   inkscape:export-xdpi="93"
   inkscape:export-filename="C:\Users\pfreg\Documents\GitHub\nuki.homey\drivers\opener\assets\icon.png"
   inkscape:version="1.0 (4035a4fb49, 2020-05-01)"
   height="412"
   width="412"
   sodipodi:docname="icon.svg"
   viewBox="0 0 412.00001 412"
   y="0px"
   x="0px"
   id="Layer_1"
   version="1.1">
  <metadata
     id="metadata988">
    <rdf:RDF>
      <cc:Work
         rdf:about="">
        <dc:format>image/svg+xml</dc:format>
        <dc:type
           rdf:resource="http://purl.org/dc/dcmitype/StillImage" />
        <dc:title></dc:title>
      </cc:Work>
    </rdf:RDF>
  </metadata>
  <sodipodi:namedview
     inkscape:current-layer="Layer_1"
     inkscape:window-maximized="1"
     inkscape:window-y="-8"
     inkscape:window-x="-8"
     inkscape:cy="197.35712"
     inkscape:cx="93.932461"
     inkscape:zoom="1.3277551"
     showgrid="false"
     id="namedview986"
     inkscape:window-height="1027"
     inkscape:window-width="1920"
     inkscape:pageshadow="2"
     inkscape:pageopacity="0"
     guidetolerance="10"
     gridtolerance="10"
     objecttolerance="10"
     borderopacity="1"
     bordercolor="#666666"
     pagecolor="#ffffff" />
  <defs
     id="defs927">
    <inkscape:perspective
       id="perspective1665"
       inkscape:persp3d-origin="205.5 : 138 : 1"
       inkscape:vp_z="411.00001 : 206.5 : 1"
       inkscape:vp_y="0 : 1000 : 0"
       inkscape:vp_x="0 : 206.5 : 1"
       sodipodi:type="inkscape:persp3d" />
  </defs>
  <style
     id="style929"
     type="text/css">
    .st0{fill:#CCCCCC;}
  </style>
  <g
     style="fill:#000000;fill-opacity:1"
     transform="matrix(1.5348837,0,0,1.5348837,45.641863,29.755816)"
     id="g945" />
  <ellipse
     ry="5.3721061"
     rx="5.3704085"
     class="st0"
     cx="205.92331"
     cy="80.929138"
     style="fill:#000000;fill-opacity:1;stroke-width:1.53464"
     id="circle941" />
  <g
     style="fill:#000000;fill-opacity:1"
     transform="matrix(1.5344025,0,0,1.5348875,48.670235,28.498779)"
     id="g975">
    <g
       style="fill:#000000;fill-opacity:1"
       id="g949" />
    <g
       style="fill:#000000;fill-opacity:1"
       id="g953" />
    <g
       style="fill:#000000;fill-opacity:1"
       id="g957" />
    <g
       style="fill:#000000;fill-opacity:1"
       id="g961" />
    <g
       style="fill:#000000;fill-opacity:1"
       id="g965" />
    <g
       style="fill:#000000;fill-opacity:1"
       id="g969" />
    <g
       style="fill:#000000;fill-opacity:1"
       id="g973">
      <path
         d="M 142.3,215.1 V 229 h 6.9 v -13.9 z m -13.9,0 V 229 h 6.9 v -13.9 z m -13.9,0 V 229 h 6.9 v -13.9 z m -13.9,0 V 229 h 7 v -13.9 z m -13.9,0 V 229 h 7 v -13.9 z m -13.8,0 V 229 h 6.9 v -13.9 z m -13.9,0 V 229 h 6.9 v -13.9 z m -7,-6.9 v 6.9 h 104.1 v -6.9 z"
         style="fill:#000000;fill-opacity:1"
         id="polygon971" />
    </g>
  </g>
  <g
     style="fill:#000000;fill-opacity:1;stroke:none;stroke-width:0;stroke-miterlimit:100;stroke-dasharray:none"
     transform="matrix(1.5344025,0,0,1.5348875,46.192013,29.817384)"
     id="g981">
    <path
       class="st0"
       d="m 77,173.6 c 0,-0.1 0.1,-0.4 0.4,-0.4 H 78 l 8,7.7 v -7.1 c 0,-0.1 0.1,-0.4 0.4,-0.4 h 2.4 c 0.1,0 0.4,0.1 0.4,0.4 v 13.4 c 0,0.1 -0.1,0.4 -0.4,0.4 h -0.4 c 0,0 -0.3,0 -0.3,-0.1 l -7.8,-8 v 7.4 c 0,0.1 -0.1,0.4 -0.4,0.4 h -2.4 c -0.1,0 -0.4,-0.1 -0.4,-0.4 v -13.3 z m 51.2,0.1 c 0,-0.1 0.1,-0.4 0.4,-0.4 h 2.4 c 0.1,0 0.4,0.1 0.4,0.4 V 187 c 0,0.1 -0.1,0.4 -0.4,0.4 h -2.4 c -0.1,0 -0.4,-0.1 -0.4,-0.4 z m -16.1,0.1 c 0,-0.3 0.1,-0.4 0.4,-0.4 h 2.4 c 0.3,0 0.4,0.3 0.4,0.4 v 5.3 l 4.5,-5.6 c 0.1,-0.1 0.3,-0.1 0.4,-0.1 h 2.5 c 0.4,0 0.6,0.4 0.4,0.7 l -4.6,5.9 5,6.6 c 0.3,0.3 0,0.7 -0.4,0.7 h -2.8 c -0.1,0 -0.3,-0.1 -0.4,-0.1 l -4.6,-6.3 v 6 c 0,0.3 -0.3,0.4 -0.4,0.4 h -2.4 c -0.3,0 -0.4,-0.3 -0.4,-0.4 z m -17.2,-0.1 c 0,-0.1 0.1,-0.4 0.4,-0.4 h 2.5 c 0.3,0 0.4,0.1 0.4,0.4 v 8.1 c 0,1.4 1,2.5 2.5,2.5 1.4,0 2.5,-1.1 2.5,-2.5 v -8.1 c 0,-0.1 0.1,-0.4 0.4,-0.4 h 2.5 c 0.1,0 0.4,0.1 0.4,0.4 v 8.3 c 0,3.1 -2.5,5.6 -5.7,5.6 -3.1,0 -5.7,-2.5 -5.7,-5.6 v -8.3 z"
       style="fill:#000000;fill-opacity:1;stroke:none;stroke-width:0;stroke-miterlimit:100;stroke-dasharray:none"
       id="path977" />
    <path
       style="fill:#000000;fill-opacity:1;stroke:none;stroke-width:0;stroke-miterlimit:100;stroke-dasharray:none"
       class="st0"
       d="m 127.8,165.2 c 0,-1.1 0.8,-2.1 2,-2.1 1.2,0 2.1,1 2.1,2.1 0,1.1 -1,2.1 -2.1,2.1 -1.1,0 -2,-1 -2,-2.1 z"
       id="path979" />
  </g>
  <rect
     ry="31.167669"
     y="37.51199"
     x="53.49826"
     height="305.09991"
     width="305.00348"
     id="rect1694"
     style="fill:none;fill-opacity:1;stroke:#000000;stroke-width:10.9983;stroke-linecap:square;stroke-linejoin:miter;stroke-miterlimit:100;stroke-dasharray:none;stroke-opacity:1;paint-order:markers stroke fill" />
  <ellipse
     ry="65.217545"
     rx="65.573418"
     cy="190.06194"
     cx="206.00002"
     id="path1696"
     style="fill:none;fill-opacity:1;stroke:#000000;stroke-width:10.9983;stroke-linecap:square;stroke-linejoin:miter;stroke-miterlimit:100;stroke-dasharray:none;stroke-opacity:1;paint-order:markers stroke fill" />
</svg>
