<?xml version='1.0' encoding='UTF-8' standalone='no'?>
<!DOCTYPE svg PUBLIC '-//W3C//DTD SVG 1.1//EN' 'http://www.w3.org/Graphics/SVG/1.1/DTD/svg11.dtd'>
<svg version="1.1" id="Layer_1" x="0px" y="0px" viewBox="0 0 208.2 229" style="enable-background:new 0 0 208.2 229;" xmlns="http://www.w3.org/2000/svg">
  <defs></defs>
  <style type="text/css">
    .st0{fill:#CCCCCC;}
  </style>
  <g>
    <g>
      <path class="st0" d="M180.4,5.7c12.2,0,22.1,9.9,22.1,22.1v152.7c0,12.2-9.9,22.1-22.1,22.1H27.8c-12.2,0-22.1-9.9-22.1-22.1V27.8
			c0-12.2,9.9-22.1,22.1-22.1H180.4 M180.4,0H27.8C12.5,0,0,12.5,0,27.8v152.7c0,15.3,12.5,27.8,27.8,27.8h152.7
			c15.3,0,27.8-12.5,27.8-27.8V27.8C208.2,12.5,195.7,0,180.4,0L180.4,0z" style="fill: rgb(0, 0, 0);"></path>
    </g>
    <g>
      <g>
        <path class="st0" d="M104.1,61.2c11.6,0,22.4,4.4,30.4,12.5c8,8,12.5,18.9,12.5,30.4s-4.4,22.4-12.5,30.4
				c-8,8-18.9,12.5-30.4,12.5s-22.4-4.4-30.4-12.5s-12.5-18.9-12.5-30.4s4.4-22.4,12.5-30.4S92.5,61.2,104.1,61.2 M104.1,55.5
				C77,55.5,55.5,77,55.5,104.1s21.5,48.6,48.6,48.6s48.6-21.5,48.6-48.6S131.2,55.5,104.1,55.5L104.1,55.5z" style="fill: rgb(0, 0, 0);"></path>
      </g>
    </g>
    <circle class="st0" cx="104.1" cy="33.3" r="3.5" style="fill: rgb(0, 0, 0);"></circle>
    <g>
      <polygon class="st0" points="156.1,208.2 52,208.2 52,215.1 156.1,215.1 156.1,208.2 		"></polygon>
    </g>
    <g>
      <g>
        <polygon class="st0" points="65.9,215.1 59,215.1 59,229 65.9,229 65.9,215.1 			"></polygon>
      </g>
      <g>
        <polygon class="st0" points="79.8,215.1 72.9,215.1 72.9,229 79.8,229 79.8,215.1 			"></polygon>
      </g>
      <g>
        <polygon class="st0" points="93.7,215.1 86.7,215.1 86.7,229 93.7,229 93.7,215.1 			"></polygon>
      </g>
      <g>
        <polygon class="st0" points="107.6,215.1 100.6,215.1 100.6,229 107.6,229 107.6,215.1 			"></polygon>
      </g>
      <g>
        <polygon class="st0" points="121.4,215.1 114.5,215.1 114.5,229 121.4,229 121.4,215.1 			"></polygon>
      </g>
      <g>
        <polygon class="st0" points="135.3,215.1 128.4,215.1 128.4,229 135.3,229 135.3,215.1 			"></polygon>
      </g>
      <g>
        <polygon class="st0" points="149.2,215.1 142.3,215.1 142.3,229 149.2,229 149.2,215.1 			"></polygon>
      </g>
    </g>
    <g>
      <path class="st0" d="M 77 173.6 C 77 173.5 77.1 173.2 77.4 173.2 L 78 173.2 L 86 180.9 L 86 173.8 C 86 173.7 86.1 173.4 86.4 173.4 L 88.8 173.4 C 88.9 173.4 89.2 173.5 89.2 173.8 L 89.2 187.2 C 89.2 187.3 89.1 187.6 88.8 187.6 L 88.4 187.6 C 88.4 187.6 88.1 187.6 88.1 187.5 L 80.3 179.5 L 80.3 186.9 C 80.3 187 80.2 187.3 79.9 187.3 L 77.5 187.3 C 77.4 187.3 77.1 187.2 77.1 186.9 L 77.1 173.6 L 77 173.6 Z M 128.2 173.7 C 128.2 173.6 128.3 173.3 128.6 173.3 L 131 173.3 C 131.1 173.3 131.4 173.4 131.4 173.7 L 131.4 187 C 131.4 187.1 131.3 187.4 131 187.4 L 128.6 187.4 C 128.5 187.4 128.2 187.3 128.2 187 L 128.2 173.7 Z M 112.1 173.8 C 112.1 173.5 112.2 173.4 112.5 173.4 L 114.9 173.4 C 115.2 173.4 115.3 173.7 115.3 173.8 L 115.3 179.1 L 119.8 173.5 C 119.9 173.4 120.1 173.4 120.2 173.4 L 122.7 173.4 C 123.1 173.4 123.3 173.8 123.1 174.1 L 118.5 180 L 123.5 186.6 C 123.8 186.9 123.5 187.3 123.1 187.3 L 120.3 187.3 C 120.2 187.3 120 187.2 119.9 187.2 L 115.3 180.9 L 115.3 186.9 C 115.3 187.2 115 187.3 114.9 187.3 L 112.5 187.3 C 112.2 187.3 112.1 187 112.1 186.9 L 112.1 173.8 Z M 94.9 173.7 C 94.9 173.6 95 173.3 95.3 173.3 L 97.8 173.3 C 98.1 173.3 98.2 173.4 98.2 173.7 L 98.2 181.8 C 98.2 183.2 99.2 184.3 100.7 184.3 C 102.1 184.3 103.2 183.2 103.2 181.8 L 103.2 173.7 C 103.2 173.6 103.3 173.3 103.6 173.3 L 106.1 173.3 C 106.2 173.3 106.5 173.4 106.5 173.7 L 106.5 182 C 106.5 185.1 104 187.6 100.8 187.6 C 97.7 187.6 95.1 185.1 95.1 182 L 95.1 173.7 L 94.9 173.7 Z" style="fill: rgb(0, 0, 0);"></path>
      <path class="st0" d="M 127.8 165.2 C 127.8 164.1 128.6 163.1 129.8 163.1 C 131 163.1 131.9 164.1 131.9 165.2 C 131.9 166.3 130.9 167.3 129.8 167.3 C 128.7 167.3 127.8 166.3 127.8 165.2 Z" style=""></path>
    </g>
  </g>
</svg>