<?xml version='1.0' encoding='UTF-8' standalone='no'?>
<!DOCTYPE svg PUBLIC '-//W3C//DTD SVG 1.1//EN' 'http://www.w3.org/Graphics/SVG/1.1/DTD/svg11.dtd'>
<!-- Animated using aniGen version 0.8.1 Quality of Life - http://anigen.org -->
<svg xmlns:dc="http://purl.org/dc/elements/1.1/" xmlns:cc="http://creativecommons.org/ns#" xmlns:rdf="http://www.w3.org/1999/02/22-rdf-syntax-ns#" xmlns:svg="http://www.w3.org/2000/svg" xmlns="http://www.w3.org/2000/svg" xmlns:sodipodi="http://sodipodi.sourceforge.net/DTD/sodipodi-0.dtd" xmlns:inkscape="http://www.inkscape.org/namespaces/inkscape" sodipodi:docname="bridgeO2.svg" inkscape:version="1.0 (4035a4fb49, 2020-05-01)" id="svg8" version="1.1" viewBox="0 0 182.90823 176.73334" height="176.73334mm" width="182.90823mm" preserveAspectRatio="xMidYMid" xmlns:xlink="http://www.w3.org/1999/xlink" xmlns:anigen="http://www.anigen.org/namespace" anigen:version="0.8.1">
  <defs id="defs2"></defs>
  <sodipodi:namedview inkscape:window-maximized="1" inkscape:window-y="-8" inkscape:window-x="-8" inkscape:window-height="1027" inkscape:window-width="1920" fit-margin-bottom="0" fit-margin-right="0" fit-margin-left="0" fit-margin-top="0" showgrid="false" inkscape:document-rotation="0" inkscape:current-layer="layer1" inkscape:document-units="mm" inkscape:cy="-49.747434" inkscape:cx="129.42034" inkscape:zoom="2.3596466" inkscape:pageshadow="2" inkscape:pageopacity="0.0" borderopacity="1.0" bordercolor="#666666" pagecolor="#ffffff" id="base"></sodipodi:namedview>
  <metadata id="metadata5">
    <rdf:rdf id="rdf:rdf8670">
      <cc:work rdf:about="" id="cc:work3410">
        <dc:format id="dc:format6640">image/svg+xml</dc:format>
        <dc:type rdf:resource="http://purl.org/dc/dcmitype/StillImage" id="dc:type3106"></dc:type>
        <dc:title id="dc:title4579"></dc:title>
      </cc:work>
    </rdf:rdf>
  </metadata>
  <g id="layer1" inkscape:groupmode="layer" inkscape:label="Livello 1">
    <path style="fill:#333333;fill-opacity:1;stroke-width:0.352778" d="m 148.7767,160.37447 c -27.49991,-15.50987 -28.9386,-16.36967 -27.72168,-16.56715 1.19211,-0.19345 3.22045,0.88416 28.47945,15.13049 14.95775,8.43632 27.24954,15.17791 27.31507,14.9813 0.0655,-0.1966 -0.12964,-6.50977 -0.43371,-14.02926 -1.20706,-29.8492 -1.38788,-36.48068 -1.40199,-51.41902 -0.0141,-14.933105 0.12622,-18.459066 1.40827,-35.3846 0.31308,-4.133332 0.51148,-7.567825 0.44088,-7.632203 -0.44475,-0.405543 -64.38017,-24.038473 -64.57319,-23.868677 -0.34896,0.306969 -0.98192,6.501969 -1.2368,12.104952 -0.21846,4.802516 -0.23139,4.862467 -1.04826,4.862467 -0.97189,0 -0.94649,0.375849 -0.46485,-6.879167 0.34046,-5.128288 0.90702,-10.339476 1.25091,-11.505636 0.12117,-0.410905 0.7821,-0.632446 2.37306,-0.795447 l 2.20513,-0.225919 32.62309,12.167871 c 17.9427,6.692328 33.13903,12.405522 33.76962,12.695989 l 1.14653,0.528115 v 56.097375 56.09738 h -2.56316 -2.56315 z m 32.36764,-40.08559 V 65.608325 h -1.21874 c -1.49163,0 -1.39304,-0.466771 -2.12352,10.054167 -1.34714,19.402528 -1.58241,33.760728 -0.8931,54.504168 0.66578,20.03506 1.42166,39.70979 1.623,42.24514 l 0.20311,2.55764 h 1.20463 1.20462 z m -27.34028,29.34675 -13.40555,-7.31124 -0.0899,-36.27975 c -0.0853,-34.45797 -0.0588,-36.268934 0.52917,-36.064502 0.34046,0.118381 6.53124,2.556591 13.75729,5.41824 l 13.13828,5.203003 0.003,38.188199 c 0.001,21.0035 -0.11634,38.18124 -0.26186,38.17274 -0.14552,-0.008 -6.29708,-3.30551 -13.67014,-7.32669 z m 12.43707,-31.7114 -0.0898,-36.231312 -11.81806,-4.686872 c -6.49993,-2.577783 -11.93712,-4.688692 -12.08264,-4.690911 -0.14552,-0.0021 -0.26458,15.527126 -0.26458,34.509655 v 34.51369 l 11.72986,6.39734 c 6.45142,3.51854 11.92904,6.40239 12.17249,6.40854 0.35275,0.009 0.42438,-7.3455 0.35277,-36.22013 z m -14.45128,21.34413 c -2.27475,-1.41158 -3.93928,-4.09956 -5.62277,-9.07996 -4.10168,-12.13427 -3.98196,-30.394772 0.25478,-38.859054 2.5007,-4.995982 6.85526,-5.205314 9.8812,-0.475011 3.96527,6.198715 6.01474,16.575255 5.67428,28.728995 -0.2732,9.7525 -1.64736,15.31551 -4.57874,18.5361 -1.87018,2.05469 -3.58354,2.40566 -5.60875,1.14893 z m 4.01059,-1.66177 c 1.98728,-1.5632 4.01528,-7.77914 4.41935,-13.5455 l 0.21771,-3.10696 -0.84727,0.18829 c -2.42186,0.53821 -11.35676,1.98374 -11.48277,1.85773 -0.0804,-0.0804 -0.24398,-2.74776 -0.36352,-5.92746 l -0.21733,-5.78127 4.90261,-0.63866 c 2.69644,-0.35126 5.51746,-0.73149 6.26893,-0.84495 l 1.3663,-0.20631 -0.23744,-2.31749 c -0.13058,-1.27461 -0.27842,-2.35847 -0.32851,-2.40856 -0.0883,-0.0883 -7.86707,0.7392 -10.54513,1.1217 l -1.32292,0.18896 v -5.29584 c 0,-5.253062 0.006,-5.295935 0.79375,-5.308417 1.75901,-0.0279 7.74177,-0.644228 7.9127,-0.81516 0.33978,-0.339781 -1.78053,-3.799099 -2.96718,-4.84099 -2.15048,-1.888151 -3.91783,-1.083221 -5.73754,2.613149 -2.02098,4.10518 -2.62961,8.126918 -2.62465,17.343088 0.004,6.30667 0.14746,8.89963 0.64682,11.64166 1.34738,7.39869 3.39736,12.80315 5.82397,15.35404 1.52594,1.6041 2.9123,1.83792 4.32212,0.72895 z m 0.29668,-17.44121 4.40972,-0.75918 -0.0666,-4.0056 c -0.0366,-2.20308 -0.11601,-4.05083 -0.17639,-4.1061 -0.0604,-0.0553 -2.57039,0.23939 -5.57782,0.6548 -5.22762,0.72208 -5.46695,0.79018 -5.44286,1.54883 0.0139,0.43644 0.0535,2.37105 0.0882,4.29913 l 0.063,3.5056 1.14653,-0.18915 c 0.63059,-0.10404 3.1309,-0.53079 5.55625,-0.94833 z m -1.14653,-16.49024 c 4.60538,-0.47694 4.45628,-0.26975 3.21292,-4.464731 l -0.75806,-2.557639 h -1.3065 c -0.71857,0 -2.52107,0.102669 -4.00555,0.228156 l -2.69906,0.228152 v 3.659122 c 0,3.61001 0.0106,3.65683 0.79375,3.48853 0.43656,-0.0938 2.57969,-0.35554 4.7625,-0.58159 z m -65.704862,5.54257 V 72.348353 l 2.116666,-0.186317 c 5.927831,-0.521783 40.230996,-1.565211 40.562336,-1.233815 0.44235,0.442408 0.25576,66.057989 -0.19118,67.233549 -0.16341,0.42979 -0.60315,0.94523 -0.97721,1.14542 -0.37406,0.20019 -9.39072,1.71875 -20.03702,3.37459 -10.64631,1.65584 -19.833176,3.09941 -20.415259,3.20795 l -1.058333,0.19734 z m -9.921523,32.28278 c -9.882473,-6.00854 -11.995186,-7.42957 -12.529062,-8.42719 -0.395344,-0.73876 -0.479972,-6.94976 -0.479972,-35.226691 0,-30.746535 0.0579,-34.387689 0.554669,-34.884446 0.504367,-0.504345 1.128448,-0.285803 6.881524,2.409776 11.057654,5.181011 11.980002,5.696589 12.531951,7.005151 0.411159,0.974781 0.492968,7.093359 0.492968,36.86985 0,23.34745 -0.122072,35.81432 -0.352778,36.02827 -0.223481,0.20726 -2.825429,-1.17621 -7.0993,-3.77472 z m 0.770209,-17.70347 c 1.081462,-1.01598 2.543913,-4.3908 3.238596,-7.47354 0.828862,-3.67817 0.813978,-14.46824 -0.02593,-18.788765 -1.88294,-9.686114 -5.217311,-14.790093 -8.873832,-13.583332 -3.973869,1.311494 -6.062765,8.414336 -5.706629,19.404167 0.444042,13.70236 4.523659,22.87279 9.551279,21.46997 0.564645,-0.15755 1.38207,-0.62038 1.816502,-1.0285 z m 56.160386,15.97272 c -1.21515,-0.69677 -1.67465,-1.17768 -1.67569,-1.75377 -0.002,-0.89641 0.11756,-0.9437 1.08009,-0.42857 0.67246,0.3599 0.68236,-0.13351 0.68236,-34.00475 V 69.212712 l -1.45274,-0.581272 c -0.79901,-0.319701 -1.94995,-0.952401 -2.55764,-1.406003 -0.60769,-0.453602 -5.39115,-2.60405 -10.6299,-4.778777 -5.23875,-2.174727 -9.59114,-4.019889 -9.67199,-4.100358 -0.81846,-0.81468 2.13125,0.224473 13.15764,4.635299 l 12.91852,5.167722 v 36.300337 c 0,19.96518 -0.0397,36.29578 -0.0882,36.29022 -0.0485,-0.006 -0.84161,-0.44213 -1.76246,-0.97014 z M 87.271185,69.203152 c -0.466225,-0.356676 -3.818845,-2.057658 -7.450269,-3.779958 -3.63142,-1.7223 -6.538704,-3.195334 -6.460628,-3.273411 0.07808,-0.07808 8.79855,-0.292231 19.378829,-0.475894 l 19.236873,-0.333932 7.85202,3.269661 c 7.33214,3.053175 7.77088,3.286238 6.62654,3.520003 -0.67402,0.137685 -8.84549,0.502768 -18.15882,0.811293 -9.313335,0.308526 -17.663131,0.639657 -18.555101,0.735845 -1.226894,0.13231 -1.828165,0.017 -2.469444,-0.473607 z" id="path889"></path>
    <path d="m 203.82031,0.01757813 c -1.8498,0.04568503 -4.19203,0.17870524 -7.2539,0.36523437 C 170.31067,1.9823842 139.86006,10.313858 115.00781,22.699219 56.06763,52.072724 16.119906,104.50605 3.0371094,169.66406 0.55380859,182.03194 0.02463029,189.07144 0.00195313,210.1582 c -0.02668347,23.6686 0.16584037,25.74099 2.63867187,28.49219 1.4666835,1.63176 3.8653856,3.47937 5.3320312,4.10742 4.1669668,1.78434 10.3823388,0.20448 13.6093748,-3.46093 2.755843,-3.13043 2.938437,-4.59145 2.896485,-23.09571 -0.05454,-24.03843 2.484062,-40.54289 9.49414,-61.72851 8.91995,-26.95754 22.402792,-49.59646 41.640625,-69.919926 32.448079,-34.279143 75.260809,-54.411424 124.738279,-58.65625 14.98411,-1.28553 18.17525,-3.699464 17.27539,-13.064453 -0.50566,-5.2625761 -1.46186,-7.4092159 -4.4375,-9.9687498 -2.71504,-2.33537948 -3.81973,-2.98275819 -9.36914,-2.84570307 z m 6.4336,64.96679687 c -0.98396,0.0061 -2.07676,0.02489 -3.29883,0.05078 -52.45238,1.110501 -102.5896,33.43665 -127.154299,81.984375 -10.263307,20.28359 -16.477646,46.7916 -16.478515,70.2832 -4.92e-4,13.49611 1.708056,20.5207 5.666015,23.29297 4.466117,3.12818 12.530956,2.61555 16.175781,-1.02929 2.844964,-2.84498 3.128265,-4.52879 3.865235,-23 0.519609,-13.02379 1.717251,-23.62735 3.455078,-30.59766 12.964235,-51.99859 55.397795,-89.651461 107.488285,-95.376954 15.06356,-1.655698 21.33651,-4.137476 24.13281,-9.544922 2.36889,-4.580939 1.3469,-9.183534 -2.92969,-13.201172 -2.52302,-2.370321 -4.0342,-2.904013 -10.92187,-2.861327 z m 5.77734,65.931645 c -7.25209,0.1911 -20.31467,2.76954 -28.72461,5.92578 -33.8,12.68509 -57.4609,47.13059 -57.28516,83.39062 0.0513,10.5773 1.76414,15.1029 6.76563,17.875 4.45867,2.47126 7.83359,2.26862 12.81641,-0.76953 4.95908,-3.02368 5.39006,-4.47993 6.11328,-20.70312 0.64539,-14.47711 3.98905,-24.0521 12.22461,-35.00782 11.0467,-14.69536 25.99473,-23.08664 45.41797,-25.49804 12.56013,-1.55935 16.61328,-4.59831 16.61328,-12.45313 0,-5.87106 -4.11019,-11.01541 -9.97852,-12.48828 -0.9261,-0.23244 -2.28933,-0.31559 -3.96289,-0.27148 z" transform="scale(0.26458333)" style="fill:#fecb3f;fill-opacity:1;stroke-width:1.33333" id="path2092"><animate attributeType="auto" attributeName="visibility" values="hidden;visible" calcMode="discrete" keyTimes="0;0.5" keySplines="0 0 1 1" dur="4s" begin="0s" repeatCount="indefinite" additive="replace" accumulate="none" fill="freeze" id="animate6532"></animate><animate attributeType="auto" attributeName="visibility" values="hidden;visible" calcMode="discrete" keyTimes="0;0.55" keySplines="0 0 1 1" dur="4s" begin="0s" repeatCount="indefinite" additive="replace" accumulate="none" fill="freeze" id="animate1650"></animate></path>
    <path style="fill:#fecb3f;fill-opacity:1;stroke-width:0.352778" d="m 149.42219,119.02476 c 0.0169,-0.41097 0.10052,-0.49456 0.21314,-0.21314 0.1019,0.25466 0.0894,0.55894 -0.0278,0.67616 -0.11722,0.11723 -0.2006,-0.0911 -0.18528,-0.46302 z" id="path2084"></path>
    <path style="fill:#fecb3f;fill-opacity:1;stroke-width:0.352778" d="m 75.388295,120.92668 c -4.138179,-6.02931 -5.613749,-21.576797 -2.885973,-30.408306 1.437422,-4.653824 3.201265,-5.325259 5.200093,-1.979493 2.492537,4.172176 3.727556,10.361355 3.730932,18.697219 0.0028,6.54309 -0.539207,9.82855 -2.152738,13.05278 -0.768004,1.53466 -1.167321,1.96299 -1.910123,2.04891 -0.765668,0.0886 -1.131781,-0.17206 -1.982191,-1.41111 z" id="path2082"><animate attributeType="auto" attributeName="fill" values="#000000;rgb(254, 203, 63)" calcMode="discrete" keyTimes="0;0.5" keySplines="0 0 1 1" dur="4s" begin="0s" repeatCount="indefinite" additive="replace" accumulate="none" fill="freeze" id="animate9364"></animate></path>
  </g>
</svg>