<?xml version="1.0" encoding="UTF-8" standalone="no"?>
<!-- Created with Inkscape (http://www.inkscape.org/) -->

<svg
   xmlns:dc="http://purl.org/dc/elements/1.1/"
   xmlns:cc="http://creativecommons.org/ns#"
   xmlns:rdf="http://www.w3.org/1999/02/22-rdf-syntax-ns#"
   xmlns:svg="http://www.w3.org/2000/svg"
   xmlns="http://www.w3.org/2000/svg"
   xmlns:sodipodi="http://sodipodi.sourceforge.net/DTD/sodipodi-0.dtd"
   xmlns:inkscape="http://www.inkscape.org/namespaces/inkscape"
   width="201.7494mm"
   height="90.381523mm"
   viewBox="0 0 201.74941 90.381525"
   version="1.1"
   id="svg97"
   inkscape:version="0.92.3 (2405546, 2018-03-11)"
   sodipodi:docname="icon.svg">
  <defs
     id="defs91" />
  <sodipodi:namedview
     id="base"
     pagecolor="#ffffff"
     bordercolor="#666666"
     borderopacity="1.0"
     inkscape:pageopacity="0.0"
     inkscape:pageshadow="2"
     inkscape:zoom="0.49497475"
     inkscape:cx="1264.2921"
     inkscape:cy="-327.65182"
     inkscape:document-units="mm"
     inkscape:current-layer="layer1"
     showgrid="false"
     inkscape:window-width="1920"
     inkscape:window-height="1027"
     inkscape:window-x="-8"
     inkscape:window-y="-8"
     inkscape:window-maximized="1" />
  <metadata
     id="metadata94">
    <rdf:RDF>
      <cc:Work
         rdf:about="">
        <dc:format>image/svg+xml</dc:format>
        <dc:type
           rdf:resource="http://purl.org/dc/dcmitype/StillImage" />
        <dc:title></dc:title>
      </cc:Work>
    </rdf:RDF>
  </metadata>
  <g
     inkscape:label="Layer 1"
     inkscape:groupmode="layer"
     id="layer1"
     transform="translate(-2.730659,-2.2480357)">
    <g
       id="Gruppe_8_1_"
       transform="matrix(29.024601,0,0,29.024601,2.730659,38.934048)">
      <path
         inkscape:connector-curvature="0"
         id="Pfad_23_1_"
         class="cls-3"
         d="m 84.7,358.15 a 0.053,0.053 0 0 1 0.05,-0.05 h 0.062 l 1.016,0.979 v -0.9 a 0.053,0.053 0 0 1 0.05,-0.05 h 0.31 a 0.053,0.053 0 0 1 0.05,0.05 v 1.71 a 0.053,0.053 0 0 1 -0.05,0.05 H 86.15 c -0.012,0 -0.025,-0.012 -0.037,-0.012 l -1,-1 v 0.942 a 0.053,0.053 0 0 1 -0.05,0.05 h -0.3 a 0.053,0.053 0 0 1 -0.05,-0.05 z"
         transform="translate(-84.7,-358.1)" />
      <path
         inkscape:connector-curvature="0"
         id="Pfad_24_1_"
         class="cls-3"
         d="m 103,358.35 a 0.053,0.053 0 0 1 0.05,-0.05 h 0.31 a 0.053,0.053 0 0 1 0.05,0.05 v 1.028 a 0.317,0.317 0 0 0 0.31,0.322 0.307,0.307 0 0 0 0.322,-0.3 v -1.05 a 0.053,0.053 0 0 1 0.05,-0.05 h 0.31 a 0.053,0.053 0 0 1 0.05,0.05 v 1.05 a 0.725,0.725 0 0 1 -1.45,0 z"
         transform="translate(-100.732,-358.275)" />
      <path
         inkscape:connector-curvature="0"
         id="Pfad_25_1_"
         class="cls-3"
         d="m 120.7,358.362 a 0.057,0.057 0 0 1 0.05,-0.062 h 0.31 a 0.057,0.057 0 0 1 0.062,0.05 v 0.682 l 0.558,-0.706 a 0.064,0.064 0 0 1 0.05,-0.025 h 0.322 a 0.069,0.069 0 0 1 0.062,0.074 c 0,0.012 0,0.025 -0.012,0.025 l -0.595,0.743 0.644,0.843 a 0.055,0.055 0 0 1 -0.025,0.087 0.043,0.043 0 0 0 -0.025,0.012 h -0.347 c -0.012,0 -0.037,-0.012 -0.05,-0.012 l -0.582,-0.793 v 0.756 a 0.057,0.057 0 0 1 -0.05,0.062 h -0.31 a 0.057,0.057 0 0 1 -0.062,-0.05 v -1.685 z"
         transform="translate(-116.239,-358.275)" />
      <path
         inkscape:connector-curvature="0"
         id="Pfad_26_1_"
         class="cls-3"
         d="m 137.1,358.35 a 0.053,0.053 0 0 1 0.05,-0.05 h 0.31 a 0.053,0.053 0 0 1 0.05,0.05 v 1.685 a 0.053,0.053 0 0 1 -0.05,0.05 h -0.31 a 0.053,0.053 0 0 1 -0.05,-0.05 z"
         transform="translate(-130.607,-358.275)" />
    </g>
    <path
       inkscape:connector-curvature="0"
       id="Pfad_27_1_"
       class="cls-3"
       d="m 189.38727,9.7935196 a 7.5463972,7.5463972 0 1 1 7.54731,7.5473104 7.3722497,7.3722497 0 0 1 -7.54731,-7.5473104 z"
       style="stroke-width:29.02459908" />
  </g>
</svg>
