<?xml version="1.0" encoding="iso-8859-1"?>
<!-- Generator: Adobe Illustrator 18.0.0, SVG Export Plug-In . SVG Version: 6.00 Build 0)  -->
<!DOCTYPE svg PUBLIC "-//W3C//DTD SVG 1.1//EN" "http://www.w3.org/Graphics/SVG/1.1/DTD/svg11.dtd">
<svg version="1.1" id="Capa_1" xmlns="http://www.w3.org/2000/svg" xmlns:xlink="http://www.w3.org/1999/xlink" x="0px" y="0px"
	 viewBox="0 0 473.506 473.506" style="enable-background:new 0 0 473.506 473.506;" xml:space="preserve">
<g>
	<path d="M396.314,0H291.578c-28.469,0-51.542,23.074-51.542,51.543v37.895h103.918c34.866,0,63.135,28.269,63.135,63.135
		c0,34.865-28.268,63.134-63.135,63.134H240.036v206.257c0,28.469,23.073,51.543,51.542,51.543h104.736
		c28.469,0,51.543-23.074,51.543-51.543V51.543C447.857,23.074,424.783,0,396.314,0z M366.411,335.493v29.247
		c0,11.405-9.232,20.654-20.652,20.654c-11.407,0-20.655-9.249-20.655-20.654v-29.247c-8.353-6.29-13.81-16.185-13.81-27.436
		c0-19.028,15.428-34.48,34.465-34.48c19.034,0,34.463,15.452,34.463,34.48C380.222,319.309,374.766,329.203,366.411,335.493z"/>
	<path d="M383.413,152.572c0-21.796-17.663-39.459-39.459-39.459H65.107c-21.796,0-39.459,17.663-39.459,39.459
		c0,21.795,17.663,39.458,39.459,39.458h278.847C365.75,192.03,383.413,174.367,383.413,152.572z"/>
</g>
<g>
</g>
<g>
</g>
<g>
</g>
<g>
</g>
<g>
</g>
<g>
</g>
<g>
</g>
<g>
</g>
<g>
</g>
<g>
</g>
<g>
</g>
<g>
</g>
<g>
</g>
<g>
</g>
<g>
</g>
</svg>
