<?xml version="1.0" encoding="UTF-8" standalone="no"?>
<svg
   xmlns:dc="http://purl.org/dc/elements/1.1/"
   xmlns:cc="http://creativecommons.org/ns#"
   xmlns:rdf="http://www.w3.org/1999/02/22-rdf-syntax-ns#"
   xmlns:svg="http://www.w3.org/2000/svg"
   xmlns="http://www.w3.org/2000/svg"
   xmlns:sodipodi="http://sodipodi.sourceforge.net/DTD/sodipodi-0.dtd"
   xmlns:inkscape="http://www.inkscape.org/namespaces/inkscape"
   inkscape:version="1.0 (4035a4fb49, 2020-05-01)"
   sodipodi:docname="lockstatus2.svg"
   id="svg841"
   version="1.1"
   viewBox="0 0 1200 1200"
   height="4535.4331"
   width="4535.4331">
  <defs
     id="defs835" />
  <sodipodi:namedview
     inkscape:window-maximized="1"
     inkscape:window-y="-8"
     inkscape:window-x="-8"
     inkscape:window-height="1027"
     inkscape:window-width="1920"
     units="px"
     showgrid="false"
     inkscape:document-rotation="0"
     inkscape:current-layer="layer1"
     inkscape:document-units="mm"
     inkscape:cy="2129.5673"
     inkscape:cx="1642.6966"
     inkscape:zoom="0.12374369"
     inkscape:pageshadow="2"
     inkscape:pageopacity="0.0"
     borderopacity="1.0"
     bordercolor="#666666"
     pagecolor="#ffffff"
     id="base" />
  <metadata
     id="metadata838">
    <rdf:RDF>
      <cc:Work
         rdf:about="">
        <dc:format>image/svg+xml</dc:format>
        <dc:type
           rdf:resource="http://purl.org/dc/dcmitype/StillImage" />
        <dc:title></dc:title>
      </cc:Work>
    </rdf:RDF>
  </metadata>
  <g
     id="layer1"
     inkscape:groupmode="layer"
     inkscape:label="Livello 1">
    <path
       transform="scale(0.26458333)"
       d="M 2265.125 4.6132812 A 2263.1038 2263.104 0 0 0 814.625 532.73242 L 1216.9043 935.01172 A 1697.1479 1697.1479 0 0 1 2267.7168 570.56836 A 1697.1479 1697.1479 0 0 1 3318.5293 935.01367 L 3720.8066 532.73633 A 2263.1038 2263.104 0 0 0 2267.7168 4.6132812 A 2263.1038 2263.104 0 0 0 2265.125 4.6132812 z M 4003.7988 815.93945 L 3601.4844 1218.2559 A 1697.1479 1697.1479 0 0 1 3964.8633 2267.7168 A 1697.1479 1697.1479 0 0 1 2267.7168 3964.8633 A 1697.1479 1697.1479 0 0 1 570.56836 2267.7168 A 1697.1479 1697.1479 0 0 1 933.94922 1218.2539 L 531.63477 815.94141 A 2263.1038 2263.104 0 0 0 4.6132812 2267.7168 A 2263.1038 2263.104 0 0 0 2267.7168 4530.8203 A 2263.1038 2263.104 0 0 0 4530.8203 2267.7168 A 2263.1038 2263.104 0 0 0 4003.7988 815.93945 z "
       style="fill:#000000;stroke:#000000;stroke-width:9.22515;stroke-miterlimit:0"
       id="path1404" />
  </g>
</svg>
