<?xml version="1.0" encoding="UTF-8" standalone="no"?>
<svg
   xmlns:dc="http://purl.org/dc/elements/1.1/"
   xmlns:cc="http://creativecommons.org/ns#"
   xmlns:rdf="http://www.w3.org/1999/02/22-rdf-syntax-ns#"
   xmlns:svg="http://www.w3.org/2000/svg"
   xmlns="http://www.w3.org/2000/svg"
   xmlns:sodipodi="http://sodipodi.sourceforge.net/DTD/sodipodi-0.dtd"
   xmlns:inkscape="http://www.inkscape.org/namespaces/inkscape"
   version="1.1"
   id="Layer_1"
   x="0px"
   y="0px"
   viewBox="0 0 412.00001 412"
   sodipodi:docname="icon.svg"
   width="412"
   height="412"
   inkscape:version="1.0 (4035a4fb49, 2020-05-01)"
   inkscape:export-filename="C:\Users\pfreg\Documents\GitHub\nuki.homey\drivers\opener\assets\icon.png"
   inkscape:export-xdpi="93"
   inkscape:export-ydpi="93">
  <metadata
     id="metadata988">
    <rdf:RDF>
      <cc:Work
         rdf:about="">
        <dc:format>image/svg+xml</dc:format>
        <dc:type
           rdf:resource="http://purl.org/dc/dcmitype/StillImage" />
        <dc:title></dc:title>
      </cc:Work>
    </rdf:RDF>
  </metadata>
  <sodipodi:namedview
     inkscape:document-rotation="0"
     pagecolor="#ffffff"
     bordercolor="#666666"
     borderopacity="1"
     objecttolerance="10"
     gridtolerance="10"
     guidetolerance="10"
     inkscape:pageopacity="0"
     inkscape:pageshadow="2"
     inkscape:window-width="1920"
     inkscape:window-height="1027"
     id="namedview986"
     showgrid="false"
     inkscape:zoom="1.2930524"
     inkscape:cx="80.011912"
     inkscape:cy="197.35712"
     inkscape:window-x="-8"
     inkscape:window-y="-8"
     inkscape:window-maximized="1"
     inkscape:current-layer="Layer_1" />
  <defs
     id="defs927">
    <inkscape:perspective
       sodipodi:type="inkscape:persp3d"
       inkscape:vp_x="0 : 206.5 : 1"
       inkscape:vp_y="0 : 1000 : 0"
       inkscape:vp_z="411.00001 : 206.5 : 1"
       inkscape:persp3d-origin="205.5 : 138 : 1"
       id="perspective1665" />
  </defs>
  <style
     type="text/css"
     id="style929">
    .st0{fill:#CCCCCC;}
  </style>
  <g
     id="g945"
     transform="matrix(1.5348837,0,0,1.5348837,45.641863,29.755816)"
     style="fill:#000000;fill-opacity:1" />
  <ellipse
     id="circle941"
     style="fill:#ffffff;fill-opacity:1;stroke-width:1.99083;stroke:#ffffff;stroke-opacity:1"
     cy="59.260185"
     cx="205.90047"
     class="st0"
     rx="6.9679332"
     ry="6.9679341" />
  <g
     id="g981"
     transform="matrix(1.7166812,0,0,1.7861244,26.692638,36.557817)"
     style="fill:#ffffff;fill-opacity:1;stroke:#ffffff;stroke-width:0;stroke-miterlimit:100;stroke-dasharray:none;stroke-opacity:1">
    <path
       id="path977"
       style="fill:#ffffff;fill-opacity:1;stroke:#ffffff;stroke-width:0;stroke-miterlimit:100;stroke-dasharray:none;stroke-opacity:1"
       d="m 77,173.6 c 0,-0.1 0.1,-0.4 0.4,-0.4 H 78 l 8,7.7 v -7.1 c 0,-0.1 0.1,-0.4 0.4,-0.4 h 2.4 c 0.1,0 0.4,0.1 0.4,0.4 v 13.4 c 0,0.1 -0.1,0.4 -0.4,0.4 h -0.4 c 0,0 -0.3,0 -0.3,-0.1 l -7.8,-8 v 7.4 c 0,0.1 -0.1,0.4 -0.4,0.4 h -2.4 c -0.1,0 -0.4,-0.1 -0.4,-0.4 v -13.3 z m 51.2,0.1 c 0,-0.1 0.1,-0.4 0.4,-0.4 h 2.4 c 0.1,0 0.4,0.1 0.4,0.4 V 187 c 0,0.1 -0.1,0.4 -0.4,0.4 h -2.4 c -0.1,0 -0.4,-0.1 -0.4,-0.4 z m -16.1,0.1 c 0,-0.3 0.1,-0.4 0.4,-0.4 h 2.4 c 0.3,0 0.4,0.3 0.4,0.4 v 5.3 l 4.5,-5.6 c 0.1,-0.1 0.3,-0.1 0.4,-0.1 h 2.5 c 0.4,0 0.6,0.4 0.4,0.7 l -4.6,5.9 5,6.6 c 0.3,0.3 0,0.7 -0.4,0.7 h -2.8 c -0.1,0 -0.3,-0.1 -0.4,-0.1 l -4.6,-6.3 v 6 c 0,0.3 -0.3,0.4 -0.4,0.4 h -2.4 c -0.3,0 -0.4,-0.3 -0.4,-0.4 z m -17.2,-0.1 c 0,-0.1 0.1,-0.4 0.4,-0.4 h 2.5 c 0.3,0 0.4,0.1 0.4,0.4 v 8.1 c 0,1.4 1,2.5 2.5,2.5 1.4,0 2.5,-1.1 2.5,-2.5 v -8.1 c 0,-0.1 0.1,-0.4 0.4,-0.4 h 2.5 c 0.1,0 0.4,0.1 0.4,0.4 v 8.3 c 0,3.1 -2.5,5.6 -5.7,5.6 -3.1,0 -5.7,-2.5 -5.7,-5.6 v -8.3 z"
       class="st0" />
    <path
       id="path979"
       d="m 127.8,165.2 c 0,-1.1 0.8,-2.1 2,-2.1 1.2,0 2.1,1 2.1,2.1 0,1.1 -1,2.1 -2.1,2.1 -1.1,0 -2,-1 -2,-2.1 z"
       class="st0"
       style="fill:#ffffff;fill-opacity:1;stroke:#ffffff;stroke-width:0;stroke-miterlimit:100;stroke-dasharray:none;stroke-opacity:1" />
  </g>
  <rect
     style="fill:none;fill-opacity:1;stroke:#ffffff;stroke-width:11;stroke-linecap:square;stroke-linejoin:miter;stroke-miterlimit:100;stroke-dasharray:none;stroke-opacity:1;paint-order:markers stroke fill"
     id="rect1694"
     width="395.7323"
     height="395.73233"
     x="8.1338501"
     y="8.1338501"
     ry="40.426281" />
  <ellipse
     style="fill:none;fill-opacity:1;stroke:#ffffff;stroke-width:11;stroke-linecap:square;stroke-linejoin:miter;stroke-miterlimit:100;stroke-dasharray:none;stroke-opacity:1;paint-order:markers stroke fill"
     id="path1696"
     cx="206"
     cy="206.00002"
     rx="107.71429"
     ry="107.68027" />
</svg>
