<?xml version="1.0" encoding="UTF-8" standalone="no"?>
<svg
   xmlns:dc="http://purl.org/dc/elements/1.1/"
   xmlns:cc="http://creativecommons.org/ns#"
   xmlns:rdf="http://www.w3.org/1999/02/22-rdf-syntax-ns#"
   xmlns:svg="http://www.w3.org/2000/svg"
   xmlns="http://www.w3.org/2000/svg"
   xmlns:sodipodi="http://sodipodi.sourceforge.net/DTD/sodipodi-0.dtd"
   xmlns:inkscape="http://www.inkscape.org/namespaces/inkscape"
   inkscape:version="1.0 (4035a4fb49, 2020-05-01)"
   sodipodi:docname="globe.svg"
   id="svg4"
   version="1.1"
   viewBox="0 0 480 920"
   height="920"
   width="480">
  <metadata
     id="metadata10">
    <rdf:RDF>
      <cc:Work
         rdf:about="">
        <dc:format>image/svg+xml</dc:format>
        <dc:type
           rdf:resource="http://purl.org/dc/dcmitype/StillImage" />
        <dc:title></dc:title>
      </cc:Work>
    </rdf:RDF>
  </metadata>
  <defs
     id="defs8" />
  <sodipodi:namedview
     inkscape:current-layer="svg4"
     inkscape:window-maximized="1"
     inkscape:window-y="-8"
     inkscape:window-x="-8"
     inkscape:cy="1013.4289"
     inkscape:cx="240"
     inkscape:zoom="1.74375"
     fit-margin-bottom="0"
     fit-margin-right="0"
     fit-margin-left="0"
     fit-margin-top="0"
     showgrid="false"
     id="namedview6"
     inkscape:window-height="1027"
     inkscape:window-width="1920"
     inkscape:pageshadow="2"
     inkscape:pageopacity="0"
     guidetolerance="10"
     gridtolerance="10"
     objecttolerance="10"
     borderopacity="1"
     bordercolor="#666666"
     pagecolor="#ffffff" />
  <g
     transform="scale(20)"
     id="g863">
    <path
       d="M 12,22 C 5.373,22 0,27.373 0,34 0,40.627 5.373,46 12,46 18.627,46 24,40.627 24,34 24,27.373 18.627,22 12,22 Z m 1,16.057 V 35 h 2.994 c -0.059,1.143 -0.212,2.24 -0.456,3.279 C 14.715,38.159 13.864,38.091 13,38.057 Z m 1.957,2.162 c -0.499,1.33 -1.159,2.497 -1.957,3.456 v -3.62 c 0.666,0.028 1.319,0.081 1.957,0.164 z M 13,33 v -3.015 c 0.868,-0.034 1.721,-0.103 2.548,-0.224 0.238,1.027 0.389,2.111 0.446,3.239 z m 0,-5.014 v -3.661 c 0.806,0.969 1.471,2.15 1.971,3.496 -0.642,0.084 -1.3,0.137 -1.971,0.165 z m 2.703,-3.267 c 1.237,0.496 2.354,1.228 3.29,2.146 -0.642,0.234 -1.311,0.442 -2.019,0.607 -0.344,-0.992 -0.775,-1.91 -1.271,-2.753 z M 8.462,38.279 C 8.218,37.24 8.064,36.143 8.006,35 H 11 v 3.057 c -0.865,0.034 -1.714,0.102 -2.538,0.222 z M 11,40.055 v 3.62 C 10.202,42.716 9.542,41.549 9.043,40.219 9.681,40.136 10.334,40.083 11,40.055 Z M 8.006,33 c 0.057,-1.128 0.207,-2.212 0.446,-3.239 0.827,0.121 1.68,0.19 2.548,0.224 V 33 Z M 9.03,27.821 c 0.5,-1.346 1.165,-2.527 1.97,-3.496 v 3.661 C 10.329,27.958 9.671,27.905 9.03,27.821 Z M 7.025,27.471 C 6.317,27.306 5.648,27.098 5.007,26.864 5.944,25.946 7.06,25.214 8.297,24.718 7.801,25.562 7.37,26.48 7.025,27.471 Z M 6.476,29.389 C 6.212,30.54 6.042,31.749 5.984,33 H 2.051 c 0.165,-1.658 0.739,-3.197 1.617,-4.518 0.88,0.361 1.816,0.67 2.808,0.907 z m 0.009,9.262 c -0.988,0.236 -1.92,0.542 -2.797,0.9 C 2.798,38.223 2.217,36.672 2.051,35 h 3.934 c 0.058,1.265 0.231,2.488 0.5,3.651 z m 0.553,1.917 C 7.38,41.544 7.806,42.449 8.295,43.28 7.072,42.79 5.969,42.069 5.039,41.165 5.675,40.936 6.338,40.73 7.038,40.568 Z m 9.924,0 c 0.7,0.163 1.362,0.367 1.999,0.597 -0.931,0.903 -2.034,1.625 -3.257,2.116 0.489,-0.832 0.915,-1.737 1.258,-2.713 z m 0.553,-1.917 c 0.27,-1.163 0.442,-2.386 0.501,-3.651 h 3.934 c -0.167,1.672 -0.748,3.223 -1.638,4.551 -0.877,-0.358 -1.81,-0.664 -2.797,-0.9 z M 18.016,33 c -0.058,-1.251 -0.229,-2.46 -0.492,-3.611 0.992,-0.237 1.929,-0.546 2.809,-0.907 0.877,1.321 1.451,2.86 1.616,4.518 z"
       id="path2"
       style="fill:#00a3ff;fill-opacity:1" />
    <circle
       style="fill:#2eb4ff;fill-opacity:1;stroke:none;stroke-width:13.5632;stroke-linecap:square;stroke-miterlimit:100;stroke-dasharray:none;paint-order:markers stroke fill"
       id="path835"
       cx="12"
       cy="16.5"
       r="1.5" />
    <circle
       r="1.5"
       cy="11.5"
       cx="12"
       id="circle837"
       style="fill:#5cc3ff;fill-opacity:1;stroke:none;stroke-width:13.5632;stroke-linecap:square;stroke-miterlimit:100;stroke-dasharray:none;paint-order:markers stroke fill" />
    <circle
       r="1.5"
       cy="6.499999"
       cx="12"
       id="circle839"
       style="fill:#8ad4ff;fill-opacity:1;stroke:none;stroke-width:13.5632;stroke-linecap:square;stroke-miterlimit:100;stroke-dasharray:none;paint-order:markers stroke fill" />
    <circle
       style="fill:#b8e6ff;fill-opacity:1;stroke:none;stroke-width:13.5632;stroke-linecap:square;stroke-miterlimit:100;stroke-dasharray:none;paint-order:markers stroke fill"
       id="circle841"
       cx="12"
       cy="1.5"
       r="1.5" />
  </g>
</svg>
